<svg version="1.1"
     xmlns="http://www.w3.org/2000/svg" xmlns:xlink="http://www.w3.org/1999/xlink" xmlns:a="http://ns.adobe.com/AdobeSVGViewerExtensions/3.0/"
     x="0px" y="0px" width="" height="330px" viewBox="0 0 528.8 988.6" style="enable-background:new 0 0 528.8 988.6;"
     xml:space="preserve">
<style type="text/css">
    .st0{fill:none;stroke:#FFFFFF;stroke-width:8.3926;stroke-miterlimit:10;}
</style>
<defs>
</defs>
<path class="st0" d="M524.6,520.8h-12.7v204.5c0,36.2-14.1,70.2-39.6,95.7c-13.2,13.2-34.7,13.2-47.9,0c-13.2-13.2-13.2-34.6,0-47.9
    c12.8-12.8,19.8-29.8,19.8-47.9c0-37.3-30.4-67.7-67.7-67.7h-33.8c-101.8,0-122.2,23.1-192.5,121.2c-10.9,15.2-32,18.7-47.2,7.8
    c-15.2-10.9-18.7-32-7.8-47.2c10.3-14.3,19.7-27.4,28.9-39.4c-19.8,10.9-38.5,24.5-56.3,41.4c-13.6,12.9-35,12.3-47.9-1.3
    c-12.9-13.6-12.3-35,1.3-47.9C35,679.1,49.3,667.6,64,657.6H38c-18.7,0-33.8-15.2-33.8-33.8s15.2-33.8,33.8-33.8h287.7
    c28,0,50.8-22.8,50.8-50.8v-18.3h-12.7V353.3V353h12.7h67.7h67.7v0.3h12.7V520.8z"/>
<rect x="357.8" y="4.2" class="st0" width="165.1" height="505.9"/>
<g>
    <path class="st0" d="M236.8,835.5c0-34.5,28-62.4,62.4-62.4c34.5,0,62.4,28,62.4,62.4c0,34.5-28,62.4-62.4,62.4
        C264.8,898,236.8,870,236.8,835.5z"/>
</g>
<g>
    <path class="st0" d="M261.8,835.5c0-20.7,16.8-37.5,37.5-37.5c20.7,0,37.5,16.8,37.5,37.5c0,20.7-16.8,37.5-37.5,37.5
        C278.6,873,261.8,856.2,261.8,835.5z"/>
</g>
<g>
    <rect x="354.6" y="922.9" class="st0" width="8.9" height="37.5"/>
</g>
<g>
    <rect x="299" y="946.9" class="st0" width="8.9" height="37.5"/>
</g>
<g>
    <rect x="242" y="925.1" class="st0" width="8.9" height="37.5"/>
</g>
</svg>

