<!-- Generator: Adobe Illustrator 19.1.0, SVG Export Plug-In  -->
<svg version="1.1"
     xmlns="http://www.w3.org/2000/svg" xmlns:xlink="http://www.w3.org/1999/xlink" xmlns:a="http://ns.adobe.com/AdobeSVGViewerExtensions/3.0/"
     x="0px" y="0px" width="511.1px" height="332.2px" viewBox="0 0 511.1 332.2" style="enable-background:new 0 0 511.1 332.2;"
     xml:space="preserve">
<style type="text/css">
    .st0{fill:none;stroke:#2E85C6;stroke-width:2;stroke-miterlimit:10;}
    .st1{fill:#FFFFFF;stroke:#2E85C6;stroke-width:2;stroke-miterlimit:10;}
    .st2{opacity:0.1;}
</style>
<defs>
</defs>
<polyline class="st0" points="381.7,111.3 430.6,20.4 491.5,93.4 "/>
<polyline class="st0" points="37.5,284 231.9,300.9 167.6,99.5 355,109.7 "/>
<g>
    <circle class="st1" cx="430.6" cy="20.4" r="19.4"/>
</g>
<g>
    <circle class="st1" cx="491.5" cy="93.4" r="18.6"/>
</g>
<circle class="st1" cx="381.7" cy="109.7" r="26.7"/>
<g>
    <g>
        <rect x="377.8" y="109.5" class="st1" width="7.9" height="8.3"/>
    </g>
    <g>
        <ellipse class="st1" cx="381.7" cy="103.1" rx="5.9" ry="8.2"/>
    </g>
    <g>
        <path class="st1" d="M377.8,111.7C377.8,111.7,377.8,111.7,377.8,111.7l-8.1,3.5c-0.5,0.2-1,0.8-1.2,1.4l-1.4,5
            c-0.1,0.5,0.2,0.9,0.7,0.9h27.6c0.5,0,0.9-0.4,0.7-0.9l-1.4-5c-0.1-0.5-0.7-1.1-1.2-1.4l-8-3.5c0,0,0,0,0,0"/>
    </g>
</g>
<g class="st2">
    <path class="st1" d="M488.6,103c-8,0-14.6-6.5-14.6-14.6s6.5-14.6,14.6-14.6V103z"/>
</g>
<g class="st2">
    <path class="st1" d="M430.6,39.9c-10.7,0-19.4-8.7-19.4-19.4c0-10.7,8.7-19.4,19.4-19.4V39.9z"/>
</g>
<path class="st1" d="M432.3,28.5c1.2-0.3,2-0.9,2-2v-0.8c0.9-0.2,1.6-1,1.6-2v-1.2c0.9-0.2,1.6-1,1.6-2v-1.2h4.2
    c0.8,0,1.4-0.6,1.4-1.4c0-0.8-0.6-1.4-1.3-1.4c-2.7-0.1-8.8-0.5-9.9-0.4c0.6-0.6,1.2-1.5,1.7-2.3c0.6-0.9,0.5-2.1-0.3-2.9
    c-0.3-0.3-0.9-0.2-1.1,0c-3.5,3.6-5.9,3.8-7.9,6.1l-0.1-0.1h-1.6c-1.5,0-2.8,1.3-2.8,2.8v5.2c0,1.5,1.3,2.8,2.8,2.8c0,0,2,1.2,4,1.2
    C429.3,28.9,430.9,28.8,432.3,28.5z"/>
<g>
    <path class="st1" d="M498.5,103.7l1.8-1.8c0.7-0.7,0.6-1.9-0.2-2.5l-2.8-2.2c-0.6-0.5-1.5-0.5-2.1,0l-0.6,0.5
        c-0.7,0.5-1.6,0.5-2.2-0.1l-5-5c-0.6-0.6-0.7-1.6-0.1-2.2l0.5-0.6c0.5-0.6,0.5-1.5,0-2.1l-2.2-2.8c-0.6-0.8-1.8-0.9-2.5-0.2
        l-1.8,1.8c-1.2,1.2-1.2,4.7,5.7,11.6C493.7,105,497.3,104.9,498.5,103.7z"/>
    <path class="st1" d="M502.4,93c0-5.8-4.7-10.6-10.6-10.6"/>
    <path class="st1" d="M491.9,84.9c4.4,0,8,3.6,8,8"/>
    <path class="st1" d="M491.9,87.5c3,0,5.5,2.5,5.5,5.5"/>
    <path class="st1" d="M491.9,90c1.6,0,3,1.3,3,3"/>
</g>
<g>
    <circle class="st1" cx="223.9" cy="292.9" r="38.2"/>
</g>
<g>
    <circle class="st1" cx="37.5" cy="276.1" r="36.5"/>
</g>
<circle class="st1" cx="171.3" cy="102.6" r="52.6"/>
<g class="st2">
    <path class="st1" d="M196.8,265.9c14.9-14.9,39.1-14.9,54.1,0c14.9,14.9,14.9,39.1,0,54.1L196.8,265.9z"/>
</g>
<g>
    <path class="st1" d="M235.4,312.3h-24.4c-4.6,0-8.4-3.8-8.4-8.4V298c0-1.4,1.2-2.6,2.6-2.6h36c1.4,0,2.6,1.2,2.6,2.6v5.9
        C243.8,308.6,240.1,312.3,235.4,312.3z"/>
    <path class="st1" d="M247.1,281.1c-5.7-5.4-10.7-5-10.7-5h-6.6c-2.2,0-2.4,0.9-2.5,1.3c-0.1,0.2-0.3,0.3-0.5,0.3h-2.9
        c-0.6,0-1.1-0.5-1.1-1.1v-0.6c0-0.3-0.3-0.6-0.6-0.6h-2.5c-0.3,0-0.6,0.3-0.6,0.6v7.4c0,0.3,0.3,0.6,0.6,0.6h2.5
        c0.3,0,0.6-0.3,0.6-0.6v-0.6c0-0.6,0.5-1.1,1.1-1.1h2.8c0.3,0,0.5,0.2,0.6,0.5c0.5,1.3,3,1.2,3,1.2l4.8,0c0.2,0,1.2-1.5,1.4-1.6
        C239,278.8,246,280.8,247.1,281.1C247.1,281.2,247.1,281.1,247.1,281.1z"/>
    <g>
        <rect x="229.2" y="283.5" class="st1" width="6" height="12"/>
    </g>
    <path class="st1" d="M208.6,286.1l3.9,6.2l0.9,3.2h6.6l-4.2-6.5l-3.9-5c1-2.2,0.6-5.5-1.3-7.3c-1.8-1.8-4.3-2.4-6.6-1.4l3.8,3.6
        l-3.3,3.2l-3.8-3.9c-1,2.3-0.6,4.8,1.2,6.6C203.6,286.7,206.3,287.1,208.6,286.1z"/>
</g>
<g>
    <path class="st1" d="M46.6,270.3c0-3,2.4-5.4,5.4-5.4c3,0,5.4,2.4,5.4,5.4v8.1c0,3-2.4,5.4-5.4,5.4c-3,0-5.4-2.4-5.4-5.4V270.3z
         M43,269.4c0-5,4.1-9.1,9.1-9.1c5,0,9.1,4.1,9.1,9.1v10c0,5-4.1,9.1-9.1,9.1c-5,0-9.1-4.1-9.1-9.1v-5.4H12.2v-4.5H43z"/>
    <rect x="12.2" y="273.9" class="st1" width="5.4" height="9.1"/>
    <rect x="22.4" y="273.9" class="st1" width="5.4" height="9.1"/>
</g>
<g>
    <path class="st1" d="M146.7,98.8v31.4c0,2,1.8,3.6,3.9,3.6h41.3c2.2,0,3.9-1.6,3.9-3.6V98.8H146.7z"/>
    <path class="st1" d="M148.1,81.6l-6.8,13.1c0,2.3,1.2,4.1,2.6,4.1h54.7c1.5,0,2.6-1.8,2.6-4.1l-6.8-13.1H148.1z"/>
    <line class="st1" x1="153.9" y1="81.6" x2="146.7" y2="98.8"/>
    <line class="st1" x1="163" y1="81.6" x2="159.2" y2="98.8"/>
    <line class="st1" x1="188.8" y1="81.6" x2="196" y2="98.8"/>
    <line class="st1" x1="179.7" y1="81.6" x2="183.5" y2="98.8"/>
    <line class="st1" x1="171.3" y1="81" x2="171.3" y2="98.2"/>
    <rect x="163.1" y="113" class="st1" width="16.3" height="20.8"/>
    <g>
        <polygon class="st1" points="171,69.6 147.9,69.6 147.9,81.5 194.7,81.5 194.7,69.6       "/>
    </g>
</g>
</svg>

