<svg id="icon-plus" version="1.1"
     xmlns="http://www.w3.org/2000/svg" xmlns:xlink="http://www.w3.org/1999/xlink" 
     x="0px" y="0px" width="16px" height="16px" viewBox="0 0 245.3 244.7" style="enable-background:new 0 0 245.3 244.7;"
     xml:space="preserve">
<style type="text/css">
    .st0{fill:#1316f7;}
</style>
<defs>
</defs>
<g>
    <path class="st0" d="M122.7,244.7C55,244.7,0,189.8,0,122.4S55,0,122.7,0c67.6,0,122.7,54.9,122.7,122.4S190.3,244.7,122.7,244.7z
         M122.7,17.1c-58.2,0-105.5,47.2-105.5,105.3s47.3,105.3,105.5,105.3c58.2,0,105.5-47.2,105.5-105.3S180.9,17.1,122.7,17.1z"/>
</g>
<g>
    <g>
        <path class="st0" d="M122.7,189.8c-4.7,0-8.6-3.8-8.6-8.6V63.5c0-4.7,3.8-8.6,8.6-8.6s8.6,3.8,8.6,8.6v117.7
            C131.2,185.9,127.4,189.8,122.7,189.8z"/>
    </g>
    <g>
        <path class="st0" d="M180.6,130.9H64.7c-4.7,0-8.6-3.8-8.6-8.6s3.8-8.6,8.6-8.6h115.9c4.7,0,8.6,3.8,8.6,8.6
            S185.3,130.9,180.6,130.9z"/>
    </g>
</g>
</svg>

