<!-- Generator: Adobe Illustrator 19.1.0, SVG Export Plug-In  -->
<svg version="1.1"
     xmlns="http://www.w3.org/2000/svg" xmlns:xlink="http://www.w3.org/1999/xlink" xmlns:a="http://ns.adobe.com/AdobeSVGViewerExtensions/3.0/"
     x="0px" y="0px" width="15px" height="14px" viewBox="0 0 272.9 247.6" style="enable-background:new 0 0 272.9 247.6;"
     xml:space="preserve">
<style type="text/css">
    .st0{fill:#44BA17;}
</style>
<defs>
</defs>
<g>
    <polygon class="st0" points="196.9,146.6 272.9,146.6 232.9,186.7    "/>
    <path class="st0" d="M181.8,210.2c-16.9,11.3-36.8,17.4-57.7,17.4C66.7,227.6,20,181.1,20,123.8S66.7,20,124.1,20
        s104.1,46.6,104.1,103.8c0,10.1-1.5,20.1-4.4,29.7l-1.7,5.6l18.5,7.9l2.1-6.9c3.6-11.7,5.4-24,5.4-36.3C248.2,55.5,192.5,0,124.1,0
        C55.7,0,0,55.5,0,123.8s55.7,123.8,124.1,123.8c25.9,0,51.1-8.2,72-23.1L181.8,210.2z"/>
</g>
</svg>

