<svg version="1.1"
     xmlns="http://www.w3.org/2000/svg" xmlns:xlink="http://www.w3.org/1999/xlink" xmlns:a="http://ns.adobe.com/AdobeSVGViewerExtensions/3.0/"
     x="0px" y="0px" width="1079.9px" height="100px" viewBox="0 0 1079.9 498.9" style="enable-background:new 0 0 1079.9 498.9;"
     xml:space="preserve">
<style type="text/css">
    .st0{fill:#172839;stroke:#FFFFFF;stroke-width:3.8283;stroke-miterlimit:10;}
    .st1{fill:#FFFFFF;}
    .st2{fill:#101D28;}
    .st3{fill:none;stroke:#FFFFFF;stroke-width:6.499;stroke-linejoin:round;stroke-miterlimit:10;}
    .st4{fill:#ED1D32;stroke:#FFFFFF;stroke-width:3.8283;stroke-linejoin:round;stroke-miterlimit:10;}
    .st5{fill:#FFFFFF;stroke:#FFFFFF;stroke-width:3.8283;stroke-linejoin:round;stroke-miterlimit:10;}
    .st6{fill:none;stroke:#FFFFFF;stroke-width:10.1593;stroke-linecap:round;stroke-linejoin:round;}
    .st7{fill:none;stroke:#FFFFFF;stroke-width:10.1593;stroke-linecap:round;stroke-linejoin:round;stroke-dasharray:0,38.3981;}
    .st8{fill:#172839;}
    .st9{fill:none;stroke:#00AEEF;stroke-width:3.8283;stroke-miterlimit:10;}
</style>
<defs>
</defs>
<circle class="st0" cx="885.4" cy="460.8" r="11.3"/>
<polygon class="st0" points="717.1,50.2 574.5,2.7 473.6,36.3 473.6,35.5 331,83 188.4,35.5 45.8,83 45.8,463.2 188.4,415.7 
    331,463.2 431.9,429.6 431.9,430.4 574.5,382.9 717.1,430.4 859.7,382.9 859.7,2.7 "/>
<g>
    <path class="st1" d="M824.1,208.7c-1.3,0-2.6-0.5-3.6-1.5c-1-0.9-1.5-2.3-1.5-3.6s0.5-2.6,1.5-3.6c0.9-1,2.3-1.5,3.6-1.5
        c1.3,0,2.6,0.5,3.6,1.5c0.9,0.9,1.5,2.3,1.5,3.6s-0.5,2.6-1.5,3.6C826.8,208.1,825.5,208.7,824.1,208.7z"/>
</g>
<g>
    <path class="st1" d="M588.6,269.1c-0.7-2.7,1-5.5,3.7-6.1l0,0c2.7-0.7,5.5,1,6.1,3.7l0,0c0.7,2.7-1,5.5-3.7,6.1l0,0
        c-0.4,0.1-0.8,0.1-1.2,0.1l0,0C591.2,272.9,589.1,271.4,588.6,269.1z M554.1,272.7c-2.7-0.8-4.2-3.6-3.5-6.3l0,0
        c0.8-2.7,3.6-4.2,6.3-3.4l0,0c2.7,0.8,4.2,3.6,3.4,6.3l0,0c-0.7,2.2-2.7,3.7-4.9,3.7l0,0C555.1,272.9,554.6,272.9,554.1,272.7z
         M623.5,253.8c-1.8-2.2-1.5-5.4,0.7-7.2l0,0c2.2-1.8,5.4-1.5,7.2,0.7l0,0c1.8,2.2,1.5,5.4-0.7,7.2l0,0c-0.9,0.8-2.1,1.2-3.2,1.2
        l0,0C625.9,255.6,624.5,255,623.5,253.8z M519.1,252.9L519.1,252.9L519.1,252.9c-2.1-1.8-2.3-5.1-0.5-7.2l0,0
        c1.8-2.1,5.1-2.3,7.2-0.5h0c2.1,1.9,2.3,5.1,0.5,7.2l0,0c-1,1.1-2.4,1.7-3.8,1.7l0,0C521.2,254.1,520,253.7,519.1,252.9z
         M649.5,225.8c-2.4-1.5-3.1-4.6-1.6-7h0c1.5-2.4,4.6-3.1,7-1.6l0,0c2.4,1.5,3.1,4.6,1.6,7l0,0l0,0l0,0c-1,1.5-2.6,2.4-4.3,2.4l0,0
        C651.3,226.6,650.4,226.3,649.5,225.8z M493.7,222.2L493.7,222.2L493.7,222.2c-1.5-2.4-0.7-5.5,1.7-7l0,0c2.4-1.5,5.5-0.7,7,1.7
        l0,0c1.5,2.4,0.7,5.5-1.7,7l0,0c-0.8,0.5-1.7,0.7-2.6,0.7l0,0C496.4,224.6,494.7,223.8,493.7,222.2z M668.1,192.2
        c-2.5-1.2-3.6-4.3-2.4-6.8l0,0c1.2-2.5,4.3-3.6,6.8-2.4l0,0c2.5,1.2,3.6,4.3,2.4,6.8l0,0l0,0l0,0c-0.9,1.8-2.7,2.9-4.6,2.9l0,0
        C669.5,192.7,668.8,192.5,668.1,192.2z M478,185.9L478,185.9L478,185.9c-0.8-2.7,0.7-5.5,3.3-6.4l0,0c2.7-0.8,5.5,0.7,6.4,3.4l0,0
        c0.8,2.7-0.7,5.5-3.4,6.4l0,0c-0.5,0.1-1,0.2-1.5,0.2l0,0C480.6,189.5,478.6,188.1,478,185.9z M815.5,172.4
        C815.5,172.4,815.5,172.4,815.5,172.4L815.5,172.4c-0.6-2.7,1.1-5.4,3.9-6.1l0,0c2.7-0.6,5.5,1.1,6.1,3.9l0,0
        c0.6,2.7-1.1,5.5-3.8,6.1l0,0c-0.4,0.1-0.7,0.1-1.1,0.1l0,0C818.1,176.4,816,174.8,815.5,172.4z M685.1,157.7
        c-2.5-1.4-3.3-4.5-2-6.9l0,0c1.4-2.5,4.5-3.3,6.9-2l0,0c2.5,1.4,3.3,4.5,2,6.9l0,0c-0.9,1.7-2.7,2.6-4.5,2.6l0,0
        C686.7,158.4,685.8,158.2,685.1,157.7z M469,147.9c-0.5-2.8,1.4-5.4,4.2-5.9l0,0c2.8-0.5,5.4,1.4,5.9,4.2l0,0
        c0.5,2.8-1.4,5.4-4.2,5.9l0,0c-0.3,0-0.6,0.1-0.9,0.1l0,0C471.6,152.1,469.5,150.4,469,147.9z M802.4,138.2c-1.4-2.4-0.6-5.5,1.8-7
        l0,0c2.4-1.4,5.5-0.6,7,1.8l0,0c1.4,2.4,0.6,5.5-1.8,7l0,0c-0.8,0.5-1.7,0.7-2.6,0.7l0,0C805.1,140.6,803.4,139.7,802.4,138.2z
         M706,125.7c-2-2-2.1-5.2-0.1-7.2l0,0c2-2,5.2-2.1,7.2-0.1l0,0c2,2,2,5.2,0.1,7.2l0,0l0,0l0,0c-1,1-2.3,1.5-3.6,1.5l0,0
        C708.3,127.1,707,126.6,706,125.7z M777.8,113.1c-2.5-1.3-3.5-4.3-2.2-6.8l0,0c1.3-2.5,4.3-3.5,6.8-2.2l0,0
        c2.5,1.3,3.5,4.3,2.2,6.8l0,0c-0.9,1.8-2.7,2.8-4.5,2.8l0,0C779.4,113.7,778.6,113.5,777.8,113.1z M737.6,104.8
        c-0.4-2.8,1.5-5.4,4.3-5.8l0,0c2.8-0.4,5.4,1.5,5.8,4.3l0,0c0.4,2.8-1.5,5.4-4.3,5.8l0,0c-0.3,0-0.5,0.1-0.8,0.1l0,0
        C740.2,109.1,738,107.3,737.6,104.8z"/>
</g>
<line class="st0" x1="879.1" y1="252.3" x2="827.7" y2="303.7"/>
<line class="st0" x1="827.7" y1="252.3" x2="879.1" y2="303.7"/>
<path class="st0" d="M942,497H828.7c-6.3,0-11.3-5.1-11.3-11.3V247.8c0-6.3,5.1-11.3,11.3-11.3H942c6.3,0,11.3,5.1,11.3,11.3v237.9
    C953.4,492,948.3,497,942,497z"/>
<rect x="817.4" y="281.8" class="st0" width="136" height="147.3"/>
<path class="st0" d="M896.7,236.4h-68c-6.3,0-11.3,5.1-11.3,11.3v237.9c0,6.3,5.1,11.3,11.3,11.3H942c6.3,0,11.3-5.1,11.3-11.3
    V338.4"/>
<rect x="817.4" y="283.7" class="st2" width="136" height="145.4"/>
<path class="st0" d="M919.4,191.1v68c0,12.5,10.1,22.7,22.7,22.7h11.3v34l34-34h68c12.5,0,22.7-10.1,22.7-22.7v-68
    c0-12.5-10.1-22.7-22.7-22.7H942C929.5,168.4,919.4,178.6,919.4,191.1z"/>
<line class="st0" x1="817.4" y1="281.8" x2="902.4" y2="281.8"/>
<line class="st0" x1="874.1" y1="259.1" x2="896.7" y2="259.1"/>
<line class="st0" x1="998.7" y1="225.1" x2="998.7" y2="225.1"/>
<line class="st0" x1="964.7" y1="225.1" x2="964.7" y2="225.1"/>
<path class="st3" d="M879.8,387c-17.8,0.8-31.5,5.4-31.5,11c0,6.1,16.6,11.1,37,11.1s37-5,37-11.1c0-5.6-13.7-10.2-31.5-11"/>
<line class="st3" x1="885.4" y1="398" x2="885.4" y2="338.7"/>
<circle class="st4" cx="885.4" cy="320.2" r="18.5"/>
<path class="st5" d="M874.3,320.2c0-6.1,5-11.1,11.1-11.1"/>
<g>
    <g>
        <g>
            <line class="st6" x1="99.7" y1="224.2" x2="99.7" y2="224.2"/>
            <path class="st7" d="M103.4,191.9c3.3-15,9.2-30.7,18.8-43.4c10.8-14.4,24.3-25.5,48.8-24.9c4.1,0.1,12.3,1.2,16.1,2.2
                c30,7.9,47.4,42.8,63.8,76.8c5.4,11.3,10.9,22.6,16.9,33.2c17.5,30.7,43.1,53.9,80.7,55.1c5.5,0.2,9.6,0.1,16.1-1.5
                c33-7.8,59.9-38.7,72.6-73.1c11.5-31.1,15.4-64.3,16.7-83.5"/>
            <line class="st6" x1="454.7" y1="116.7" x2="454.7" y2="116.7"/>
        </g>
    </g>
</g>
<circle class="st8" cx="85.8" cy="324.7" r="85.8"/>
<path class="st9" d="M86.7,259.5c-35.9,0-65,29.1-65,65s29.1,65,65,65"/>
<line class="st9" x1="86.6" y1="383.8" x2="86.6" y2="259.5"/>
<line class="st9" x1="149.8" y1="321.4" x2="27.5" y2="321.4"/>
<path class="st9" d="M86.7,263.4c-21.1,0-38.2,28.2-38.2,63.1c0,34.8,17.1,63.1,38.2,63.1"/>
<path class="st9" d="M86.7,263.4c21.1,0,38.2,28.2,38.2,63.1c0,34.8-17.1,63.1-38.2,63.1"/>
<path class="st9" d="M85.8,259.9c35.9,0,65,29.1,65,65s-29.1,65-65,65"/>
<line class="st0" x1="952.1" y1="429" x2="816.2" y2="429"/>
</svg>

